<svg width="105mm" height="29mm" version="1.1" viewBox="0 0 105 29" xmlns="http://www.w3.org/2000/svg" xmlns:xlink="http://www.w3.org/1999/xlink">
 <defs>
  <linearGradient id="b" x1="90" x2=".56" y1="76" y2="50" gradientTransform="translate(7.3 -48)" gradientUnits="userSpaceOnUse" xlink:href="#a"/>
  <linearGradient id="a">
   <stop stop-color="#8ff0a4" offset="0"/>
   <stop stop-color="#f9f06b" offset="1"/>
  </linearGradient>
  <linearGradient id="c" x1="1.5" x2="93" y1="57" y2="76" gradientTransform="translate(5.2 -50)" gradientUnits="userSpaceOnUse" xlink:href="#a"/>
 </defs>
 <g fill-rule="evenodd" stroke-linecap="round" stroke-linejoin="round" stroke-width="1.8">
  <path d="m18 2.1c-7.3-1e-6 -14 5.9-15 13l-1.4 13h7.9l1.4-13c0.31-2.9 2.9-5.3 5.8-5.3 2.9 2e-6 5 2.4 4.7 5.3l-1.4 13h7.9l1.4-13c0.77-7.3-4.5-13-12-13zm29 0c-7.3 1e-6 -14 5.9-15 13-0.77 7.3 4.5 13 12 13h7.9l0.83-7.9h-7.9c-1.3 0-2.5-0.5-3.4-1.3h6.3l0.83-7.9h-6.3c1-0.82 2.3-1.3 3.6-1.3h7.9l0.83-7.9zm20 0-0.0031 0.028-0.13-0.011c-4.5-0.28-8.8 3-9.9 7.5-1 4.5 1.6 8.7 6 9.5 0.73 0.14 1.5 0.17 2.2 0.11l-0.0031 0.032h4c0.37 2e-6 0.63 0.3 0.59 0.66-0.038 0.37-0.37 0.66-0.73 0.66h-13l-0.83 7.9h13c4.7 2e-6 9-3.8 9.5-8.6 0.5-4.7-2.9-8.6-7.7-8.6h-4.6c-0.37 0-0.63-0.3-0.59-0.66 0.038-0.37 0.37-0.66 0.73-0.66h21l-1.9 19h7.9l1.9-19h9.9l0.83-7.9z" fill="url(#b)" style="paint-order:fill markers stroke"/>
  <path d="m16 4.5e-5c-7.3-1e-6 -14 5.9-15 13l-1.4 13h7.9l1.4-13c0.31-2.9 2.9-5.3 5.8-5.3 2.9 2e-6 5 2.4 4.7 5.3l-1.4 13h7.9l1.4-13c0.77-7.3-4.5-13-12-13zm29 0c-7.3 1e-6 -14 5.9-15 13-0.77 7.3 4.5 13 12 13h7.9l0.83-7.9h-7.9c-1.3 0-2.5-0.5-3.4-1.3h6.3l0.83-7.9h-6.3c1-0.82 2.3-1.3 3.6-1.3h7.9l0.83-7.9zm20 0-0.0031 0.028-0.13-0.011c-4.5-0.28-8.8 3-9.9 7.5-1 4.5 1.6 8.7 6 9.5 0.73 0.14 1.5 0.17 2.2 0.11l-0.0031 0.032h4c0.37 2e-6 0.63 0.3 0.59 0.66-0.038 0.37-0.37 0.66-0.73 0.66h-13l-0.83 7.9h13c4.7 2e-6 9-3.8 9.5-8.6 0.5-4.7-2.9-8.6-7.7-8.6h-4.6c-0.37 0-0.63-0.3-0.59-0.66 0.038-0.37 0.37-0.66 0.73-0.66h21l-1.9 19h7.9l1.9-19h9.9l0.83-7.9z" fill="url(#c)" style="paint-order:fill markers stroke"/>
  <path d="m17 1.1c-7.3-1e-6 -14 5.9-15 13l-1.4 13h7.9l1.4-13c0.31-2.9 2.9-5.3 5.8-5.3 2.9 2e-6 5 2.4 4.7 5.3l-1.4 13h7.9l1.4-13c0.77-7.3-4.5-13-12-13zm29 0c-7.3 1e-6 -14 5.9-15 13-0.77 7.3 4.5 13 12 13h7.9l0.83-7.9h-7.9c-1.3 0-2.5-0.5-3.4-1.3h6.3l0.83-7.9h-6.3c1-0.82 2.3-1.3 3.6-1.3h7.9l0.83-7.9zm20 0-0.0031 0.028-0.13-0.011c-4.5-0.28-8.8 3-9.9 7.5-1 4.5 1.6 8.7 6 9.5 0.73 0.14 1.5 0.17 2.2 0.11l-0.0031 0.032h4c0.37 2e-6 0.63 0.3 0.59 0.66-0.038 0.37-0.37 0.66-0.73 0.66h-13l-0.83 7.9h13c4.7 2e-6 9-3.8 9.5-8.6 0.5-4.7-2.9-8.6-7.7-8.6h-4.6c-0.37 0-0.63-0.3-0.59-0.66 0.038-0.37 0.37-0.66 0.73-0.66h21l-1.9 19h7.9l1.9-19h9.9l0.83-7.9z" fill="#fff" style="paint-order:fill markers stroke"/>
 </g>
</svg>
